# xmcd
#
# Track frame offsets:
#	150
#	15126
#	26966
#	40636
#	55880
#	67125
#	78618
#	91098
#	106620
#	124056
#	132098
#	144863
#	157391
#	170497
#	184655
#	196582
#	205135
#
# Disc length: 2945 seconds
#
# Revision: 0
# Processed by: cddbd v1.5.2PL0 Copyright (c) Steve Scherf et al.
# Submitted via: audiograbber 1.83.01
#
DISCID=db0b7f11
DTITLE=Lutz Sauer - Alter Teddybär Rag
DYEAR=2007
DGENRE=Blues
TTITLE0=Alter Teddybär Blues
TTITLE1=Der Blues mit dem Blues
TTITLE2=Der tierisch geile Blues
TTITLE3=Doppelkopf Blues
TTITLE4=Fett feist und schwabbelig
TTITLE5=Frühstücksblues
TTITLE6=Halbe Welt Blues
TTITLE7=Ich bin es wert
TTITLE8=Kabelanschluß talkin'
TTITLE9=Kommt schon Jungs, jetzt geht das los (Heut' Abend)
TTITLE10=Land unserer Träume V1
TTITLE11=Land unserer Träume V2
TTITLE12=Lehrerinnen Lob
TTITLE13=Liebe ist fürn Arsch
TTITLE14=Mädchen vom Kabarett
TTITLE15=Schlüssel zu meinem Herzen
TTITLE16=Zipperlein Blues
EXTD=by Columbia No1
EXTT0=
EXTT1=
EXTT2=
EXTT3=
EXTT4=
EXTT5=
EXTT6=
EXTT7=
EXTT8=
EXTT9=
EXTT10=
EXTT11=
EXTT12=
EXTT13=
EXTT14=
EXTT15=
EXTT16=
PLAYORDER=
